HIERARCHY
ROOT Hips
{
	OFFSET 0.0000 0.0000 0.0000
	CHANNELS 6 Xposition Yposition Zposition Zrotation Xrotation Yrotation
	JOINT Ab
	{
		OFFSET -0.0000 8.0846 -0.0000
		CHANNELS 3 Zrotation Xrotation Yrotation
		JOINT Chest
		{
			OFFSET -0.0000 25.0068 -0.0000
			CHANNELS 3 Zrotation Xrotation Yrotation
			JOINT Neck
			{
				OFFSET -0.0000 25.0068 0.0000
				CHANNELS 3 Zrotation Xrotation Yrotation
				JOINT Head
				{
					OFFSET -0.0000 10.7556 0.0000
					CHANNELS 3 Zrotation Xrotation Yrotation
					End Site
					{
						OFFSET -0.0000 16.6222 0.0000
					}
				}
			}
			JOINT LeftCollar
			{
				OFFSET -0.0000 25.0068 0.0000
				CHANNELS 3 Zrotation Xrotation Yrotation
				JOINT LeftShoulder
				{
					OFFSET 19.5556 -0.0000 0.0000
					CHANNELS 3 Zrotation Xrotation Yrotation
					JOINT LeftElbow
					{
						OFFSET 27.1828 0.0000 0.0000
						CHANNELS 3 Zrotation Xrotation Yrotation
						JOINT LeftWrist
						{
							OFFSET 23.3157 0.0000 0.0000
							CHANNELS 3 Zrotation Xrotation Yrotation
							End Site
							{
								OFFSET 0.0000 -14.6667 0.0000
							}
						}
					}
				}
			}
			JOINT RightCollar
			{
				OFFSET -0.0000 25.0068 0.0000
				CHANNELS 3 Zrotation Xrotation Yrotation
				JOINT RightShoulder
				{
					OFFSET -19.5556 0.0000 0.0000
					CHANNELS 3 Zrotation Xrotation Yrotation
					JOINT RightElbow
					{
						OFFSET -27.1828 0.0000 0.0000
						CHANNELS 3 Zrotation Xrotation Yrotation
						JOINT RightWrist
						{
							OFFSET -23.3157 0.0000 0.0000
							CHANNELS 3 Zrotation Xrotation Yrotation
							End Site
							{
								OFFSET -0.0000 -14.6667 0.0000
							}
						}
					}
				}
			}
		}
	}
	JOINT LeftHip
	{
		OFFSET 11.7333 0.0000 0.0000
		CHANNELS 3 Zrotation Xrotation Yrotation
		JOINT LeftKnee
		{
			OFFSET -0.0000 -40.8688 0.0000
			CHANNELS 3 Zrotation Xrotation Yrotation
			JOINT LeftAnkle
			{
				OFFSET -0.0000 -44.4337 0.0000
				CHANNELS 3 Zrotation Xrotation Yrotation
				End Site
				{
					OFFSET -0.0000 -4.8889 16.6222
				}
			}
		}
	}
	JOINT RightHip
	{
		OFFSET -11.7333 0.0000 0.0000
		CHANNELS 3 Zrotation Xrotation Yrotation
		JOINT RightKnee
		{
			OFFSET -0.0000 -40.8688 0.0000
			CHANNELS 3 Zrotation Xrotation Yrotation
			JOINT RightAnkle
			{
				OFFSET -0.0000 -44.4337 0.0000
				CHANNELS 3 Zrotation Xrotation Yrotation
				End Site
				{
					OFFSET -0.0000 -4.8889 16.6222
				}
			}
		}
	}
}
MOTION
Frames: 8
Frame Time: 0.010000
1.0424 88.4185 68.1102 0.7518 358.5862 183.1288 3.9308 7.8173 359.0947 354.4528 6.1028 359.6588 4.1655 342.1415 359.0128 0.0743 11.8571 358.3538 341.2394 358.0567 11.7125 300.1320 26.3694 4.0310 16.8950 353.7518 317.8244 85.1114 354.6392 343.3971 18.9797 359.0487 354.5483 35.9614 49.4364 32.9428 329.2339 348.7509 40.0518 273.2886 347.9796 6.8705 0.0278 352.5028 356.7114 357.8490 17.8369 355.0462 357.1220 349.1575 23.0363 2.6343 341.4851 4.3216 359.0952 28.4428 9.8059 353.1924 345.1501 335.8485 
1.0661 88.2390 67.5988 1.1419 358.8686 183.0219 3.9143 7.7654 359.1815 354.3995 6.0353 359.7379 4.2625 342.0369 358.9992 0.3375 12.3205 358.2909 341.3787 358.0748 11.7075 299.8287 25.2362 4.7108 16.5285 353.8813 318.0394 84.9427 354.6021 342.9684 18.9817 359.0827 354.7288 34.2738 49.3661 34.3129 329.9981 349.0239 40.1974 273.6733 348.0957 7.6933 0.5155 352.6696 356.8888 357.7114 18.9136 354.7600 357.5359 348.2858 23.2058 3.1414 341.2756 4.2792 359.0773 29.8912 10.0970 352.5376 344.7396 335.5307 
1.0733 88.0572 67.0819 1.5010 359.1819 182.8537 3.8411 7.7200 359.3061 354.4118 6.0195 359.8488 4.3035 341.9781 358.9572 0.6494 12.6508 358.2047 341.5129 358.0976 11.6540 299.5230 24.2690 5.3297 16.1165 354.0226 318.1843 84.9175 354.7279 342.2287 18.9850 359.1115 354.7528 32.3076 49.1429 35.9629 331.0330 349.4582 40.2570 273.9423 347.9940 8.3834 0.9862 353.1213 357.1734 357.5736 19.4907 354.3530 357.5809 347.2951 23.3770 3.5952 341.0579 4.2922 359.1292 31.4191 10.3102 352.0809 344.2516 335.3045 
1.0937 87.9014 66.5289 1.7242 359.6061 182.6238 3.6250 7.7552 359.4098 354.3737 6.1270 359.9551 4.4244 341.7753 358.8944 0.9358 12.9748 358.0783 341.6142 358.1100 11.5703 299.3704 23.5503 5.8390 15.9158 354.0859 318.3409 84.7160 354.7707 341.7449 19.0233 359.1388 354.8531 30.9198 49.0259 37.0572 331.7387 349.6703 40.3263 274.3976 347.9509 9.2470 1.3527 353.8592 357.6640 357.4744 19.7356 354.2548 357.8869 346.8798 23.3407 3.9227 340.9805 4.5551 359.3427 32.9196 10.2361 351.8417 343.6876 335.0303 
1.0553 87.7617 65.9897 1.8078 359.9102 182.4327 3.3696 7.6643 359.4955 354.2840 6.2815 0.0409 4.4043 341.5028 358.7995 1.3742 13.3283 357.9238 341.6308 358.1083 11.5620 299.2838 23.2727 6.2143 15.9192 354.0386 318.6046 84.5446 354.8577 341.4015 19.0940 359.1442 354.8702 29.4589 48.8943 38.2597 332.4507 349.9285 40.2846 274.8461 347.9115 10.1956 1.4993 354.5442 357.9606 357.3944 19.7961 354.3855 358.1888 346.5463 23.1945 4.0096 340.7207 4.2681 359.3094 34.5144 10.7130 351.8476 343.0636 334.8522 
0.9979 87.6402 65.4451 1.8010 0.2113 182.2972 3.0945 7.5847 359.6069 354.1360 6.3460 0.1147 4.3197 341.4295 358.6704 1.8686 13.5610 357.7470 341.5466 358.1084 11.5066 299.3063 23.6570 6.6339 16.2871 353.7884 319.0640 84.3655 355.0080 341.5671 19.2487 359.1349 354.9577 28.4057 48.7321 38.9055 333.1410 350.1795 40.3058 275.4496 347.9480 11.1282 1.5221 355.2873 358.1366 357.3416 19.7215 354.3798 358.1150 346.1303 23.1270 3.9420 340.5083 4.0911 359.4273 36.0060 10.7369 352.1701 342.4291 335.0066 
0.9596 87.5214 64.9097 1.8095 0.3964 182.3211 2.8535 7.4715 359.5930 354.0137 6.3263 0.0911 4.3545 341.4004 358.5522 2.0960 13.6723 357.5914 341.4649 358.1128 11.3813 299.4995 23.6916 6.9144 16.3865 353.8109 319.3919 84.2901 355.0253 341.6488 19.3106 359.1384 354.9560 28.0040 48.6237 39.0420 333.7834 350.3900 40.4851 275.5853 348.0729 12.0773 1.5941 355.8819 358.1460 357.2286 19.7065 354.3219 357.8849 345.7498 22.9951 3.8599 340.2102 3.8205 359.5497 37.4092 10.6887 351.9932 342.0062 334.9164 
0.9186 87.4126 64.4087 1.7960 0.4302 182.3360 2.5852 7.2619 359.6305 353.9088 6.2727 0.1185 4.3795 341.3226 358.4416 2.2881 13.8418 357.4456 341.3052 358.0979 11.4674 299.8431 24.5733 6.9633 16.8663 353.6482 320.0227 84.0212 354.9997 342.1320 19.3230 359.1438 354.9022 27.8553 48.4221 39.0521 334.5527 350.6751 40.7112 275.4522 348.2950 12.9023 1.6331 356.2829 358.1082 357.0915 19.7093 354.4205 357.7635 345.3773 22.8446 3.7312 339.7256 3.6395 359.7330 38.8394 10.5969 351.9842 341.4879 334.8477 
